<?xml version="1.0" encoding="UTF-8" standalone="no"?><!DOCTYPE svg PUBLIC "-//W3C//DTD SVG 1.1//EN" "http://www.w3.org/Graphics/SVG/1.1/DTD/svg11.dtd"><svg width="100%" height="100%" viewBox="0 0 1024 1024" version="1.1" xmlns="http://www.w3.org/2000/svg" xmlns:xlink="http://www.w3.org/1999/xlink" xml:space="preserve" xmlns:serif="http://www.serif.com/" style="fill-rule:evenodd;clip-rule:evenodd;stroke-linejoin:round;stroke-miterlimit:2;"><g id="Background"><path d="M619.789,413.129c-0.012,-2.54 1.151,-1.652 3.72,-1.56c50.138,1.782 85.136,1.174 107.947,4.243c0.719,0.097 6.473,0.871 9.007,1.051c47.276,3.362 76.295,39.548 84.188,44.379c2.101,1.286 23.352,-5.322 31.89,-2.883c19.877,5.677 -2.556,15.633 -2.945,16.198c-1.655,2.405 20.582,6.46 26.471,24.069c3.801,11.365 -1.058,75.559 -1.132,75.951c-0.161,0.844 -0.7,3.676 -10.5,2.277c-2.258,-0.322 -2.043,-0.819 -20.28,-20.032c-18.597,-19.591 -21.652,-15.163 -48.679,-17.073c-22.44,-1.586 -45.491,-0.3 -63.986,-0.761c-7.414,-0.184 -15.273,1.789 -10.396,-1.834c27.235,-20.233 34.11,-31.564 52.44,-29.952c26.799,2.356 53.303,5.986 57.924,6.619c7.84,1.074 10.516,-9.856 22.522,-25.112c3.165,-4.022 -1.898,-1.14 -12.413,1.086c-70.81,14.992 -70.857,15.596 -77.098,14.882c-2.884,-0.33 -36.769,-6.84 -37.033,-6.909c-6.301,-1.656 -25.77,-3.976 -17.844,-5.012c7.603,-0.993 31.945,-9.605 61.961,-17.066c2.381,-0.592 29.736,-7.391 29.76,-7.419c1.464,-1.694 -0.53,-1.244 -6.692,-3.2c-9.087,-2.885 -8.96,-2.995 -18.038,-5.839c-144.255,-45.205 -146.713,-44.432 -160.794,-46.103Z" style="fill:#a4a9ad;fill-opacity:0.99;"/><path d="M510.5,498.044c9.148,-0.111 62.089,-0.015 64.033,0.009c0.494,0.006 3.97,0.183 -0.369,6.17c-0.836,1.154 -8.816,12.167 -10.729,14.218c-2.372,2.545 -17.598,1.519 -110.934,1.507c-27.151,-0.003 -29.333,0.825 -29.552,-3.483c-0.91,-17.922 2.011,-18.194 3.498,-18.332c2.957,-0.275 81.901,-0.144 84.053,-0.09Z" style="fill:#0069e1;fill-opacity:0.99;"/><path d="M404.307,457.681c3.621,4.472 6.096,4.849 2.719,9.511c-0.354,0.488 -47.579,59.422 -51.24,63.558c-6.049,6.835 -9.254,14.204 -18.69,2.092c-27.054,-34.724 -29.058,-37.316 -27.187,-40.068c0.534,-0.785 11.92,-12.803 16.364,-9.874c8.101,5.338 19.614,20.867 22.013,19.281c0.116,-0.076 22.785,-24.923 24.764,-27.092c21.087,-23.112 23.785,-24.429 27.257,-21.374c0.338,0.298 0.296,0.294 3.999,3.966Z" style="fill:#006be1;fill-opacity:1;"/><path d="M202.425,552.156c3.558,-1.188 18.074,-1.119 19.074,-1.12c2.606,-0.002 80.121,-1.181 91.038,0.968c11.289,2.222 11.235,2.74 20.315,10.039c6.226,5.005 12.859,7.741 6.63,7.25c-8.293,-0.654 -21.156,-1.668 -103.983,-1.187c-19.033,0.111 -18.114,5.608 -26.971,8.476c-1.767,0.572 -35.428,1.04 -35.774,-0.145c-0.172,-0.59 4.127,-4.772 4.52,-5.154c1.752,-1.704 1.847,-1.934 3.983,-4.023c10.89,-10.649 10.481,-11.534 21.168,-15.103Z" style="fill:#343f46;fill-opacity:0.99;"/><path d="M531.496,445.042c27.704,-0.519 28.013,-0.904 29.73,0.743c0.848,0.813 2.826,17.971 -1.748,18.601c-6.101,0.839 -6.121,0.452 -76.979,0.199c-41.404,-0.148 -43.648,0.881 -43.772,-3.101c-0.417,-13.371 -0.214,-16.425 3.781,-16.491c0.24,-0.004 83.835,-0.023 88.988,0.049Z" style="fill:#b8bdc2;fill-opacity:0.99;"/><path d="M612.677,542.72c-7.034,4.835 -17.509,-9.604 -16.375,-12.319c1.837,-4.396 28.161,-27.983 28.07,-29.889c-0.019,-0.39 -0.229,-0.272 -3.149,-3.736c-24.879,-25 -27.453,-25.848 -24.495,-29.068c0.803,-0.874 8.446,-9.192 10.769,-10.214c3.9,-1.716 7.838,3.391 9.241,4.763c1.264,1.236 4.047,4.058 7.004,7l9.022,8.976c2.454,2.44 7.372,8.722 9.301,6.805c1.042,-1.036 8.599,-8.548 12.854,-13.112c15.153,-16.251 16.897,-15.236 18.514,-14.295c2.657,1.546 7.863,7.158 10.337,9.624c3.337,4.233 0.443,4.879 -19.493,25.028c-3.686,3.726 -9.433,7.494 -6.637,10.053c2.17,1.986 15.714,14.378 25.804,26.199c1.394,6.006 -10.98,15.626 -14.899,13.876c-1.158,-0.517 -0.994,-0.61 -3.305,-2.646c-22.073,-21.989 -21.565,-22.59 -23.942,-23.884c-1.622,-0.883 -1.534,0.309 -15.509,13.896l-3.954,4.074c-4.573,4.501 -4.589,4.382 -9.157,8.868Z" style="fill:#364047;fill-opacity:0.99;"/><path d="M847.745,572.258c2.775,2.672 3.714,3.504 3.487,4.155c-0.042,0.119 -0.727,0.714 -0.812,0.717c-33.241,0.996 -37.847,-1.464 -40.729,-3.003c-13.367,-7.138 -14.153,-6.091 -35.195,-6.048c-47.023,0.096 -46.953,0.019 -93.958,1.241c-4.347,0.113 0.224,-1.56 3.738,-4.106c10.485,-7.712 9.743,-9.108 22.156,-13.009c0.196,-0.019 0.697,-0.077 0.822,-0.09c0.077,-0.008 0.157,-0.017 0.239,-0.026c4.485,-0.475 16.501,-1.532 42.004,-1.082c5.043,0.007 4.94,-0.02 10.006,-0.063c3.68,0.035 3.647,-0.161 45.999,0.104c5.508,0.055 5.433,-0.09 10.992,0.474c7.887,1.252 8.485,1.307 15.286,5.588c4.406,3.209 4.112,3.408 7.963,7.144l4.028,3.97l3.972,4.035Z" style="fill:#353f46;fill-opacity:0.99;"/><path d="M400.491,413.488c-66.531,11.735 -165.839,50.96 -180.322,53.562c-5.701,1.024 1.352,1.526 12.376,4.291c53.26,13.361 58.881,12.078 56.067,19.2c-2.832,7.168 -7.497,5.914 -31.208,12.573c-10.013,2.812 -14.333,0.196 -37.863,-4.759c-52.959,-11.153 -53.517,-11.563 -53.671,-10.729c-0.098,0.529 16.903,25.656 18.501,26.21c4.381,1.519 63.825,-9.453 70.386,-5.81c5.413,3.006 16.669,12.832 36.076,29.123c6.227,5.227 -2.211,2.454 -10.328,2.774c-16.809,0.662 -77.568,-1.803 -90.105,4.367c-12.902,6.349 -28.482,32.386 -36.909,32.721c-6.072,0.242 -7.85,0.612 -8.34,-5.47c-2.378,-29.513 -3.44,-29.39 -3.222,-59.038c0.208,-28.288 15.405,-29.8 26.442,-36.161c2.761,-1.592 -3.435,-2.53 -9.606,-9.094c-4.121,-4.383 3.712,-9.59 13.728,-9.454c19.856,0.27 21.505,7.584 30.76,-0.584c31.871,-28.129 50.171,-33.444 55.187,-34.902c39.929,-11.599 142.405,-10.606 143.725,-10.366c1.362,0.248 -0.167,1.28 -1.674,1.545Z" style="fill:#0069dd;fill-opacity:0.99;"/></g></svg>
